<?xml version="1.0" standalone="no"?>
<!DOCTYPE svg PUBLIC "-//W3C//DTD SVG 20010904//EN"
 "http://www.w3.org/TR/2001/REC-SVG-20010904/DTD/svg10.dtd">
<svg version="1.0" xmlns="http://www.w3.org/2000/svg"
 width="591.000000pt" height="591.000000pt" viewBox="0 0 591.000000 591.000000"
 preserveAspectRatio="xMidYMid meet">
<metadata>
Created by potrace 1.14, written by Peter Selinger 2001-2017
</metadata>
<g transform="translate(0.000000,591.000000) scale(0.100000,-0.100000)"
fill="#000000" stroke="none">
<path d="M261 5028 c-73 -9 -124 -33 -147 -71 -18 -31 -19 -64 -21 -813 -2
-720 -1 -783 15 -814 23 -47 58 -58 119 -38 45 15 157 61 230 94 17 8 34 14
38 14 4 0 21 7 38 15 46 20 362 155 497 210 151 62 222 100 266 143 69 67 67
51 65 607 -2 504 -6 560 -40 601 -39 48 -42 48 -486 51 -231 1 -442 4 -470 5
-27 2 -74 0 -104 -4z"/>
<path d="M3057 5018 c-113 -14 -154 -56 -205 -210 -52 -157 -131 -415 -136
-442 -2 -13 2 -33 10 -45 26 -37 81 -27 239 44 17 7 59 25 95 40 36 14 79 32
95 40 17 7 95 41 175 75 79 34 158 67 175 75 16 7 170 72 340 144 331 140 370
164 363 219 -2 20 -13 32 -43 47 -38 19 -61 20 -545 20 -278 0 -531 -3 -563
-7z"/>
<path d="M4160 4734 c-34 -12 -119 -48 -175 -74 -33 -15 -132 -57 -220 -94
-88 -37 -169 -71 -180 -76 -11 -5 -83 -37 -160 -71 -77 -33 -162 -71 -190 -84
-121 -56 -296 -130 -317 -134 -35 -7 -176 -75 -208 -101 -70 -55 -97 -107
-169 -327 -37 -115 -86 -260 -109 -323 -22 -63 -64 -189 -92 -280 -28 -91 -84
-264 -125 -385 -105 -315 -112 -364 -53 -408 22 -17 41 -19 149 -18 68 1 176
3 239 3 63 1 196 -2 295 -7 233 -10 264 -9 318 14 54 23 89 66 121 152 51 135
216 638 236 719 21 85 42 130 60 130 14 0 41 -44 50 -82 18 -72 40 -140 94
-292 31 -88 58 -169 60 -180 28 -140 126 -371 176 -416 32 -29 103 -50 165
-49 22 0 201 1 398 3 315 3 360 2 374 -12 14 -14 11 -20 -29 -56 -24 -23 -63
-56 -86 -74 -22 -19 -52 -44 -65 -55 -73 -66 -101 -90 -197 -167 -58 -46 -134
-102 -170 -125 -82 -52 -137 -106 -156 -150 -31 -75 -22 -113 132 -574 81
-240 154 -447 163 -461 33 -52 82 -76 178 -86 52 -5 969 -9 1104 -5 14 1 38
12 53 26 41 38 36 89 -20 205 -52 108 -98 223 -143 360 -18 52 -35 102 -38
110 -3 8 -7 20 -8 25 -2 6 -33 89 -70 185 -38 96 -97 249 -132 340 -35 91 -85
233 -112 315 -27 83 -62 175 -78 205 -37 69 -85 189 -161 400 -33 91 -81 219
-107 285 -205 526 -230 593 -322 845 -164 453 -301 778 -346 819 -26 23 -95
37 -127 25z"/>
<path d="M1175 3561 c-88 -31 -218 -83 -280 -111 -22 -10 -166 -73 -320 -140
-316 -137 -371 -163 -400 -188 -60 -50 -95 -134 -88 -207 1 -16 2 -361 2 -765
-1 -1494 -2 -1441 29 -1493 36 -62 65 -70 240 -68 87 2 236 3 332 2 96 0 294
0 440 0 146 0 371 0 500 -1 219 -2 304 -2 535 -2 50 0 153 0 230 -1 124 -1
146 2 190 22 97 43 122 84 175 285 17 65 43 149 57 185 14 36 60 169 103 294
83 241 87 266 53 330 -46 89 -183 172 -316 191 -26 4 -304 7 -617 8 -507 0
-573 2 -602 17 -55 28 -66 60 -72 211 -6 130 -7 801 -3 1213 l2 199 -28 24
c-36 31 -64 30 -162 -5z"/>
<path d="M3542 1149 c-44 -9 -71 -28 -409 -282 -236 -177 -293 -224 -293 -243
0 -15 8 -25 23 -30 38 -12 1420 -8 1444 4 11 6 23 21 26 32 6 22 8 20 -303
245 -91 65 -203 146 -250 180 -47 35 -95 67 -106 73 -36 19 -97 29 -132 21z"/>
</g>
</svg>
